<?xml version="1.0" encoding="UTF-8" standalone="no"?>
<!-- Created with Inkscape (http://www.inkscape.org/) -->

<svg
   xmlns:dc="http://purl.org/dc/elements/1.1/"
   xmlns:cc="http://creativecommons.org/ns#"
   xmlns:rdf="http://www.w3.org/1999/02/22-rdf-syntax-ns#"
   xmlns:svg="http://www.w3.org/2000/svg"
   xmlns="http://www.w3.org/2000/svg"
   xmlns:sodipodi="http://sodipodi.sourceforge.net/DTD/sodipodi-0.dtd"
   xmlns:inkscape="http://www.inkscape.org/namespaces/inkscape"
   width="116.60289mm"
   height="37.237427mm"
   viewBox="0 0 116.60289 37.237426"
   version="1.1"
   id="svg8"
   inkscape:version="0.92.3 (2405546, 2018-03-11)"
   sodipodi:docname="last.svg"
   inkscape:export-filename="/home/razlaw/workspaces/thesis_ws/src/trajectory_editor/rqt_pose_interpolator/icons/last.png"
   inkscape:export-xdpi="16.366163"
   inkscape:export-ydpi="16.366163">
  <defs
     id="defs2">
    <marker
       inkscape:stockid="Arrow2Lend"
       orient="auto"
       refY="0"
       refX="0"
       id="Arrow2Lend"
       style="overflow:visible"
       inkscape:isstock="true">
      <path
         id="path4541"
         style="fill:#000000;fill-opacity:1;fill-rule:evenodd;stroke:#000000;stroke-width:0.625;stroke-linejoin:round;stroke-opacity:1"
         d="M 8.7185878,4.0337352 -2.2072895,0.01601326 8.7185884,-4.0017078 c -1.7454984,2.3720609 -1.7354408,5.6174519 -6e-7,8.035443 z"
         transform="matrix(-1.1,0,0,-1.1,-1.1,0)"
         inkscape:connector-curvature="0" />
    </marker>
  </defs>
  <sodipodi:namedview
     id="base"
     pagecolor="#ffffff"
     bordercolor="#666666"
     borderopacity="1.0"
     inkscape:pageopacity="0.0"
     inkscape:pageshadow="2"
     inkscape:zoom="0.35"
     inkscape:cx="-626.86701"
     inkscape:cy="1340.8367"
     inkscape:document-units="mm"
     inkscape:current-layer="layer1"
     showgrid="false"
     inkscape:window-width="3840"
     inkscape:window-height="2052"
     inkscape:window-x="0"
     inkscape:window-y="0"
     inkscape:window-maximized="1"
     fit-margin-top="0"
     fit-margin-left="0"
     fit-margin-right="58.53202"
     fit-margin-bottom="0"
     inkscape:snap-global="false" />
  <metadata
     id="metadata5">
    <rdf:RDF>
      <cc:Work
         rdf:about="">
        <dc:format>image/svg+xml</dc:format>
        <dc:type
           rdf:resource="http://purl.org/dc/dcmitype/StillImage" />
        <dc:title></dc:title>
      </cc:Work>
    </rdf:RDF>
  </metadata>
  <g
     inkscape:label="Layer 1"
     inkscape:groupmode="layer"
     id="layer1"
     transform="translate(-46.476528,-98.053176)">
    <path
       style="color:#000000;font-style:normal;font-variant:normal;font-weight:normal;font-stretch:normal;font-size:medium;line-height:normal;font-family:sans-serif;font-variant-ligatures:normal;font-variant-position:normal;font-variant-caps:normal;font-variant-numeric:normal;font-variant-alternates:normal;font-feature-settings:normal;text-indent:0;text-align:start;text-decoration:none;text-decoration-line:none;text-decoration-style:solid;text-decoration-color:#000000;letter-spacing:normal;word-spacing:normal;text-transform:none;writing-mode:lr-tb;direction:ltr;text-orientation:mixed;dominant-baseline:auto;baseline-shift:baseline;text-anchor:start;white-space:normal;shape-padding:0;clip-rule:nonzero;display:inline;overflow:visible;visibility:visible;opacity:1;isolation:auto;mix-blend-mode:normal;color-interpolation:sRGB;color-interpolation-filters:linearRGB;solid-color:#000000;solid-opacity:1;vector-effect:none;fill:#000000;fill-opacity:1;fill-rule:nonzero;stroke:none;stroke-width:10.23047066;stroke-linecap:round;stroke-linejoin:miter;stroke-miterlimit:4;stroke-dasharray:none;stroke-dashoffset:0;stroke-opacity:1;color-rendering:auto;image-rendering:auto;shape-rendering:auto;text-rendering:auto;enable-background:accumulate"
       d="m 100.94877,98.177742 c -6.147537,0.04971 -11.38084,3.854578 -13.88355,8.211328 -2.899782,-4.73987 -8.610474,-8.254786 -15.498126,-8.199094 -11.135671,0.09004 -18.684329,8.205904 -22.085472,16.115534 -1.594879,3.70903 -1.861602,5.37358 -1.861602,5.37358 -0.743416,3.02909 0.375231,5.14833 2.909438,5.65825 3.829134,-0.11559 5.377828,-6.4106 6.866564,-8.87418 3.179247,-5.17111 6.602098,-10.53121 14.298868,-10.59345 8.743981,0.019 12.320907,7.92395 15.346203,13.67526 3.229285,-5.88319 6.101524,-13.56675 14.034967,-13.68805 8.30506,-0.12698 12.64509,8.8594 15.46091,14.52196 2.70118,-5.57719 6.79293,-14.38052 14.48972,-14.44276 8.82233,-0.0714 13.66243,7.0425 16.29661,12.56048 4.57964,0.32035 4.98105,0.54 6.94108,-4.16781 -3.75588,-7.86769 -11.37662,-16.168687 -23.36499,-16.071759 -6.25284,0.05059 -11.82895,3.813149 -14.36155,8.292459 -2.86301,-4.4888 -8.68058,-8.427519 -15.58907,-8.371658 z"
       id="path3713"
       inkscape:connector-curvature="0"
       sodipodi:nodetypes="ccsscccccsccccccsc" />
    <path
       inkscape:connector-curvature="0"
       id="path5158"
       style="fill:#000000;fill-opacity:1;fill-rule:evenodd;stroke:#000000;stroke-width:1.94191539;stroke-linejoin:round;stroke-opacity:1"
       d="m 155.01445,100.55513 5.75771,33.89828 -28.81941,-22.47004 c 9.56979,1.12903 18.86814,-3.5126 23.0617,-11.42824 z" />
  </g>
</svg>
